<svg width="122" height="114" viewBox="0 0 122 114" fill="none" xmlns="http://www.w3.org/2000/svg">
<path d="M29.6638 0C27.6283 0 26 1.6092 26 3.62069L26.0291 66.408C26.0291 68.3908 27.6865 70 29.6929 70H70.6634C85.115 70 96.8333 58.4195 96.8333 44.1379V25.8621C96.8333 11.5805 85.115 0 70.6634 0H29.6638Z" fill="#FDB415"/>
<path d="M58.9657 9.61241L61.2916 7.31406C61.9312 6.71074 62.9197 6.71074 63.5593 7.31406L83.3849 26.7951C84.5188 27.8869 84.6641 29.6681 83.6756 30.9896C83.036 31.8228 81.9894 32.2537 80.9427 32.2537H40.1003C39.2281 32.2537 38.5012 31.5355 38.5012 30.6736V27.4559C38.5012 26.594 39.2281 25.8758 40.1003 25.8758H73.2964L58.9657 11.8246C58.3552 11.2213 58.3552 10.2157 58.9657 9.61241Z" fill="#12284C"/>
<path d="M59.0213 60.3902L61.3472 62.689C61.9868 63.2925 62.9753 63.2925 63.6149 62.689L83.4405 43.2037C84.5743 42.1117 84.7197 40.3301 83.7312 39.0083C83.0916 38.1749 82.045 37.7439 80.9983 37.7439H40.1558C39.2836 37.7439 38.5568 38.4623 38.5568 39.3244V42.5428C38.5568 43.4048 39.2836 44.1232 40.1558 44.1232H73.3519L59.0213 58.1775C58.4107 58.781 58.4107 59.7867 59.0213 60.3902Z" fill="#12284C"/>
<path d="M63.9271 94.1261H62.6893L65.4578 90.8357C65.7373 90.5092 65.4977 90 65.0585 90H62.8756C62.5296 90 62.1968 90.1567 61.9839 90.4178L57.2323 96.0455C56.8995 96.4372 57.1923 97.0117 57.6981 97.0117H63.9271C65.5509 97.0117 66.8686 98.3044 66.8686 99.8974V102.796H55.3024C54.557 102.796 53.9447 102.222 53.9048 101.49V97.8474C53.9048 97.5601 53.6919 97.3251 53.4124 97.2729L53.386 97.2662C53.345 97.2557 53.31 97.2467 53.2659 97.2467H51.509C51.1763 97.2467 50.9101 97.5079 50.9101 97.8343V101.647C50.9101 102.339 50.3777 102.914 49.6989 103.005C49.0068 102.914 48.4877 102.339 48.4877 101.647V97.8343C48.4877 97.5079 48.2215 97.2467 47.8888 97.2467H46.1319C45.7991 97.2467 45.5329 97.5079 45.5329 97.8343V101.647C45.5329 102.339 45.0005 102.914 44.3217 103.005C43.6296 102.914 43.1105 102.339 43.1105 101.647V97.8343C43.1105 97.5079 42.8443 97.2467 42.5116 97.2467H40.7281C40.3953 97.2467 40.1291 97.5079 40.1291 97.8343V101.647C40.1291 102.404 39.5036 103.018 38.7316 103.018H30.6525C29.9072 102.979 29.3215 102.378 29.3215 101.647V97.8343C29.3215 97.5079 29.0553 97.2467 28.7226 97.2467H26.8725C26.5398 97.2467 26.2736 97.5079 26.2736 97.8343V105.799C26.2736 106.557 25.648 107.183 24.8628 107.183H20.8033C20.4439 107.183 20.2309 107.588 20.4572 107.875L21.7749 109.586C21.9878 109.86 22.3073 110.017 22.6533 110.017H24.9426C27.192 110.017 29.042 108.345 29.2949 106.204C29.3082 106.047 29.3215 105.878 29.3215 105.721V105.434C29.3349 105.394 29.3349 105.355 29.3349 105.316V104.611L30.0004 105.473C30.2133 105.747 30.5327 105.904 30.8788 105.904H38.7316C39.8363 105.904 40.8479 105.499 41.6198 104.833C41.9127 105.081 42.2321 105.303 42.5781 105.473C42.7378 105.551 42.9108 105.616 43.0837 105.682L43.0972 105.682C43.4832 105.812 43.8958 105.891 44.3217 105.904C44.9473 105.878 45.5196 105.721 46.052 105.473C46.3981 105.303 46.7308 105.094 47.0103 104.833C47.3031 105.081 47.6226 105.303 47.9686 105.473C48.1283 105.551 48.3014 105.616 48.4744 105.682H48.4877C48.8737 105.812 49.2863 105.891 49.7122 105.904C50.3378 105.878 50.9101 105.721 51.4425 105.473C51.8551 105.277 52.2278 105.016 52.5605 104.702C52.8933 104.964 53.2526 105.199 53.6652 105.355C54.1843 105.564 54.7433 105.682 55.329 105.682H69.2511C69.5838 105.682 69.85 105.421 69.85 105.094V99.8974C69.8234 96.7114 67.1747 94.1261 63.9271 94.1261Z" fill="#12284C"/>
<path d="M117.552 94.1261H112.029C111.696 94.1261 111.43 94.3872 111.43 94.7136V96.4372C111.43 96.7636 111.696 97.0248 112.029 97.0248H117.552C118.324 97.0248 118.95 97.6385 118.95 98.3958V101.425C118.95 102.182 118.324 102.796 117.552 102.796H112.029C111.696 102.796 111.43 103.057 111.43 103.384V105.107C111.43 105.434 111.696 105.695 112.029 105.695H117.552C119.962 105.695 121.905 103.775 121.905 101.425V98.3958C121.905 96.0324 119.962 94.1261 117.552 94.1261Z" fill="#12284C"/>
<path d="M93.1555 107.34H94.9124C95.2319 107.34 95.5114 107.601 95.5114 107.928V109.442C95.5114 109.769 95.2452 110.03 94.9124 110.03H93.1555C92.8228 110.03 92.5566 109.769 92.5566 109.442V107.928C92.5566 107.601 92.8228 107.34 93.1555 107.34Z" fill="#12284C"/>
<path d="M35.3642 110.526H33.6073C33.2746 110.526 33.0084 110.787 33.0084 111.113V112.628C33.0084 112.955 33.2746 113.216 33.6073 113.216H35.3642C35.697 113.216 35.9632 112.955 35.9632 112.628V111.113C35.9632 110.787 35.697 110.526 35.3642 110.526Z" fill="#12284C"/>
<path d="M103.151 107.34H107.623C107.956 107.34 108.222 107.601 108.236 107.928V109.442C108.236 109.769 107.969 110.03 107.637 110.03H103.151C102.818 110.03 102.552 109.769 102.552 109.442V107.928C102.552 107.601 102.818 107.34 103.151 107.34Z" fill="#12284C"/>
<path d="M36.7351 107.34H32.2497C31.917 107.34 31.6508 107.601 31.6508 107.928V109.442C31.6508 109.769 31.917 110.03 32.2497 110.03H36.7351C37.0679 110.03 37.3341 109.769 37.3341 109.442V107.928C37.3341 107.601 37.0546 107.34 36.7351 107.34Z" fill="#12284C"/>
<path d="M107.464 97.0248H109.22C109.553 97.0248 109.819 97.2859 109.833 97.6123V101.425C109.833 103.775 107.889 105.695 105.48 105.695H101.98C101.634 105.695 101.314 105.538 101.101 105.264L100.436 104.402V105.107C100.436 105.434 100.17 105.695 99.837 105.695H90.7597V105.76C90.7597 108.11 88.8165 110.03 86.4074 110.03H81.2965C78.9007 110.03 76.9441 108.123 76.9441 105.76V100.498C76.9441 100.172 77.2103 99.9104 77.5431 99.9104H79.3C79.6327 99.9104 79.8989 100.172 79.8989 100.498V105.76C79.8989 106.517 80.5245 107.131 81.2965 107.131H86.4074C87.1794 107.131 87.8049 106.517 87.8049 105.76V105.695H85.7153C85.3826 105.695 85.1164 105.434 85.1164 105.107V103.384C85.1164 103.057 85.3826 102.796 85.7153 102.796H97.4812V98.3958C97.4812 97.6385 96.8556 97.0248 96.0837 97.0248H90.5468C90.1874 97.0248 89.9878 96.62 90.2007 96.3327L91.5716 94.557C91.7846 94.2828 92.104 94.1261 92.4501 94.1261H96.0837C98.4794 94.1261 100.436 96.0324 100.436 98.3958V102.796H105.467C106.239 102.796 106.865 102.182 106.865 101.425V97.6123C106.865 97.2859 107.131 97.0248 107.464 97.0248Z" fill="#12284C"/>
<path d="M74.0825 92.3372H72.5652C72.1659 92.3372 71.8465 92.6506 71.8465 93.0423V105.003C71.8465 105.394 72.1659 105.708 72.5652 105.708H74.0825C74.4818 105.708 74.8013 105.394 74.8013 105.003V93.0423C74.8013 92.6506 74.4818 92.3372 74.0825 92.3372Z" fill="#12284C"/>
<path d="M24.5833 101.66C24.5833 103.344 23.585 104.807 22.1476 105.499C21.6152 105.747 21.0295 105.904 20.4173 105.93C19.9914 105.917 19.5788 105.838 19.1928 105.708H19.1795C19.0065 105.643 18.8334 105.577 18.6737 105.499C18.3276 105.329 18.0082 105.107 17.7154 104.859C17.4359 105.12 17.1031 105.329 16.7571 105.499C16.2247 105.747 15.6524 105.904 15.0268 105.93C14.6009 105.917 14.1883 105.838 13.8023 105.708V105.982C13.6958 108.176 11.899 109.925 9.66293 110.03H4.35232C1.95655 110.03 0 108.123 0 105.76V100.498C0 100.172 0.266197 99.9104 0.598943 99.9104H2.35584C2.68859 99.9104 2.95478 100.172 2.95478 100.498V105.76C2.95478 106.517 3.58035 107.131 4.35232 107.131H9.46329C9.68956 107.131 9.91583 107.066 10.1022 106.974C10.5015 106.726 10.7677 106.295 10.7677 105.799V97.8343C10.7677 97.5079 11.0339 97.2468 11.3666 97.2468H13.2167C13.3098 97.2468 13.3897 97.2729 13.4562 97.299C13.6692 97.3904 13.8289 97.5993 13.8289 97.8474V101.66C13.8289 102.352 14.348 102.927 15.0401 103.018C15.7189 102.927 16.2513 102.352 16.2513 101.66V97.8474C16.2513 97.5209 16.5175 97.2598 16.8502 97.2598H18.6071C18.9399 97.2598 19.2061 97.5209 19.2061 97.8474V101.66C19.2061 102.352 19.7252 102.927 20.4173 103.018C21.0961 102.927 21.6285 102.352 21.6285 101.66V97.8474C21.6285 97.5209 21.8947 97.2598 22.2274 97.2598H23.9843C24.3171 97.2598 24.5833 97.5209 24.5833 97.8474V101.66Z" fill="#12284C"/>
</svg>
